<?xml version="1.0" encoding="utf-8"?>
<svg version="1.1" id="Counverer" xmlns="http://www.w3.org/2000/svg" xmlns:xlink="http://www.w3.org/1999/xlink" x="0px" y="0px"
	 viewBox="0 0 186.1 33.8" style="enable-background:new 0 0 186.1 33.8;" xml:space="preserve">
<style type="text/css">
	.st0{fill:#09CE33;}
	.st1{fill:#AAEC0C;}
</style>
<title>Asset 1</title>
<path id="b" class="st0" d="M0,0.3h7.9c1.3-0.1,2.5,0.3,3.6,1c0.8,0.6,1.2,1.6,1.2,2.6c0,0.8-0.3,1.6-0.9,2.2
	c-0.7,0.7-1.6,1.2-2.6,1.4c1.2,0.2,2.3,0.7,3.2,1.5c0.7,0.6,1.1,1.5,1.1,2.4c0,0.7-0.2,1.4-0.6,2c-0.5,0.7-1.2,1.2-2,1.5
	c-1,0.4-2.1,0.6-3.2,0.6H0v-0.8h1.3c0.3,0,0.6,0,0.8-0.2c0.2-0.1,0.2-0.2,0.3-0.4V2c0-0.2-0.1-0.5-0.3-0.6C1.9,1.2,1.6,1.1,1.3,1.1
	H0V0.3z M4.5,7.3h2.9c0.8,0,1.6-0.3,2.1-0.8c0.6-0.7,0.9-1.6,0.8-2.5c0-0.6-0.1-1.2-0.4-1.7C9.7,1.9,9.3,1.6,8.8,1.4
	C8,1.2,7.2,1.1,6.4,1.1c-0.5,0-1,0-1.5,0.2C4.6,1.4,4.5,1.7,4.5,1.9L4.5,7.3z M4.5,8.1v5.8c0,0.2,0.1,0.5,0.2,0.6
	c0.3,0.2,0.6,0.2,0.9,0.2h1.8c1,0.1,1.9-0.2,2.7-0.8c0.6-0.7,0.9-1.6,0.8-2.6c0-0.9-0.3-1.7-0.9-2.4C9.5,8.4,8.6,8,7.7,8.1L4.5,8.1z
	"/>
<path id="i" class="st0" d="M14.8,5.9l3.8-0.1V14c0,0.2,0,0.4,0.2,0.5c0.2,0.1,0.4,0.2,0.6,0.2h1.1v0.8H15v-0.8h1
	c0.2,0,0.5-0.1,0.7-0.2c0.2-0.2,0.2-0.4,0.2-0.6v-6c0-0.3-0.1-0.6-0.3-0.9c-0.3-0.2-0.6-0.3-1-0.3h-0.8L14.8,5.9z M17.4,0.1
	c0.3,0,0.6,0.1,0.8,0.4c0.2,0.2,0.4,0.5,0.4,0.8c0,0.3-0.1,0.6-0.3,0.8c-0.2,0.2-0.5,0.3-0.8,0.3c-0.3,0-0.6-0.1-0.8-0.3
	c-0.4-0.4-0.5-1.1-0.1-1.6c0,0,0,0,0.1-0.1C16.8,0.3,17.1,0.1,17.4,0.1z"/>
<path id="n_1_" class="st0" d="M21.6,5.9l3.2-0.2c0.1,0.7,0.2,1.4,0.3,2.1c0.4-0.6,0.9-1.2,1.5-1.6c0.6-0.4,1.3-0.5,2-0.5
	c0.6,0,1.1,0.1,1.6,0.4c0.4,0.3,0.8,0.7,1,1.2c0.3,0.6,0.4,1.2,0.4,1.8v4.7c0,0.3,0.1,0.5,0.2,0.7c0.2,0.2,0.5,0.2,0.8,0.2h0.7v0.8
	h-5.1v-0.8h0.5c0.3,0,0.7,0,0.9-0.2c0.2-0.2,0.3-0.4,0.3-0.6V9.7c0-0.7-0.1-1.4-0.4-2c-0.4-0.6-1-1-1.8-0.9c-0.8,0-1.5,0.3-1.9,0.9
	c-0.5,0.7-0.8,1.6-0.8,2.4v3.6c0,0.3,0.1,0.5,0.2,0.7c0.2,0.2,0.5,0.2,0.8,0.2h0.7v0.8h-5.1v-0.8h0.7c0.3,0,0.5,0,0.8-0.2
	c0.2-0.1,0.3-0.3,0.3-0.5V7.8c0-0.3-0.1-0.7-0.3-0.9c-0.3-0.2-0.6-0.4-1-0.3h-0.5L21.6,5.9z"/>
<path id="a" class="st0" d="M44.7,14.4l0.4,0.6c-0.4,0.5-1,0.8-1.7,0.8c-0.4,0-0.8-0.1-1.2-0.4c-0.4-0.4-0.7-0.8-0.8-1.3
	c-0.5,0.6-1.1,1-1.7,1.4c-0.6,0.2-1.2,0.4-1.8,0.3c-0.8,0.1-1.6-0.2-2.2-0.6c-0.5-0.4-0.8-1-0.8-1.6c0.1-1.1,0.7-2.1,1.8-2.5
	c1.5-0.7,3-1.2,4.7-1.3V8.2c0-0.5-0.2-1-0.6-1.3c-0.4-0.4-1-0.6-1.6-0.6c-0.5,0-1.1,0.1-1.5,0.4c-0.3,0.2-0.5,0.4-0.5,0.5
	c0,0.2,0.1,0.3,0.2,0.5c0.2,0.2,0.3,0.5,0.3,0.7c0,0.3-0.1,0.6-0.3,0.8c-0.2,0.2-0.5,0.3-0.8,0.3c-0.3,0-0.6-0.1-0.8-0.4
	c-0.2-0.2-0.4-0.6-0.3-0.9c0.1-0.8,0.5-1.5,1.2-1.9c0.9-0.6,1.9-0.9,3-0.8c0.9-0.1,1.9,0.2,2.6,0.7c0.6,0.4,0.9,1.1,0.9,1.8v5.3
	c0,0.3,0.1,0.7,0.2,1c0.1,0.2,0.3,0.3,0.6,0.3C44.2,14.7,44.5,14.6,44.7,14.4z M41.3,10.4c-1.3,0.1-2.6,0.5-3.7,1.2
	c-0.5,0.4-0.8,1.1-0.8,1.7c0,0.4,0.1,0.9,0.4,1.2c0.3,0.3,0.7,0.5,1.1,0.4c0.8,0,1.6-0.3,2.1-0.9c0.6-0.6,0.9-1.4,0.9-2.3L41.3,10.4
	z"/>
<path id="r_2_" class="st0" d="M46.2,5.9l3.5-0.2v3.9c0.3-1,0.7-2,1.4-2.9c0.4-0.6,1.2-1,1.9-1c0.5,0,0.9,0.2,1.2,0.5
	c0.3,0.3,0.5,0.8,0.5,1.3c0,0.4-0.1,0.7-0.3,1c-0.2,0.2-0.5,0.4-0.8,0.4c-0.3,0-0.6-0.1-0.7-0.3c-0.2-0.2-0.3-0.5-0.3-0.8
	c0-0.2,0-0.5,0.1-0.7c0.1-0.1,0.1-0.2,0.2-0.3c0-0.1-0.1-0.2-0.2-0.2c-0.4,0-0.7,0.2-1,0.5c-0.5,0.6-0.9,1.2-1.1,2
	c-0.4,1-0.6,2-0.6,3v2c0,0.2,0.1,0.4,0.3,0.5c0.3,0.1,0.5,0.2,0.8,0.2h1.2v0.8h-6v-0.8h1c0.3,0,0.5,0,0.7-0.2
	c0.2-0.1,0.3-0.3,0.3-0.4V8c0-0.4-0.1-0.7-0.3-1c-0.2-0.3-0.5-0.4-0.9-0.4h-0.8V5.9z"/>
<path id="y" class="st0" d="M55.5,5.9h4.6v0.7h-0.4c-0.3,0-0.6,0-0.8,0.2c-0.1,0.1-0.2,0.3-0.2,0.5c0,0.1,0,0.2,0.1,0.3l2.7,5.8
	l2-4.8c0.1-0.3,0.2-0.7,0.2-1c0-0.2-0.1-0.5-0.3-0.6c-0.4-0.2-0.8-0.3-1.2-0.3V5.9h4v0.7c-0.7,0-1.3,0.4-1.6,1L61,15.9
	c-0.4,1.1-1,2.1-1.8,2.9c-0.5,0.5-1.3,0.8-2,0.8c-0.5,0-0.9-0.1-1.2-0.4c-0.3-0.2-0.5-0.6-0.5-1c0-0.3,0.1-0.6,0.3-0.8
	c0.2-0.2,0.4-0.3,0.7-0.3c0.2,0,0.5,0.1,0.7,0.3c0.2,0.2,0.3,0.4,0.3,0.6c0,0.1,0,0.2,0,0.3c0,0.1,0,0.2,0,0.2
	c0,0.2,0.1,0.2,0.3,0.2c0.3,0,0.5-0.1,0.8-0.2c0.3-0.2,0.6-0.5,0.8-0.8c0.2-0.4,0.7-1.2,1.3-2.4l-3.7-7.8c-0.1-0.2-0.3-0.4-0.5-0.6
	c-0.3-0.2-0.6-0.2-0.9-0.3V5.9z"/>
<path id="c" class="st0" d="M84.5,1.5L85.2,0h0.7l0.3,6.1h-0.7c-0.3-1.4-0.9-2.7-1.7-3.8c-0.7-0.9-1.8-1.5-3-1.5
	c-1.3,0-2.4,0.6-3.1,1.7c-0.8,1.1-1.2,3.1-1.2,5.8c-0.1,1.8,0.4,3.7,1.4,5.2c0.8,1,2,1.6,3.2,1.6c1.1,0,2.3-0.4,3.1-1.2
	c0.9-1,1.5-2.2,1.6-3.6h0.7c-0.1,1.6-0.8,3-1.8,4.2c-1.1,1-2.4,1.5-3.9,1.4c-1.2,0-2.4-0.3-3.5-0.9c-1.1-0.7-2-1.6-2.5-2.7
	c-0.7-1.2-1-2.6-1-3.9c0-1.5,0.3-2.9,1-4.3c0.5-1.2,1.4-2.2,2.5-3c1-0.7,2.1-1,3.3-1c0.7,0,1.3,0.1,1.9,0.3
	C83.2,0.6,83.8,1,84.5,1.5z"/>
<path id="o" class="st0" d="M92.8,5.6C94,5.6,95.2,6.1,96,7c0.9,1,1.4,2.3,1.3,3.7c0,0.9-0.2,1.9-0.6,2.7c-0.8,1.5-2.3,2.4-4,2.4
	c-1.2,0-2.4-0.5-3.2-1.4c-0.9-1-1.4-2.3-1.3-3.7C88.2,9.3,88.7,8,89.6,7C90.4,6.1,91.6,5.6,92.8,5.6z M92.8,6.3
	c-0.8,0-1.5,0.4-1.9,1c-0.6,1-0.8,2.1-0.7,3.3c-0.1,1.2,0.2,2.4,0.7,3.4c0.4,0.6,1.1,1,1.9,1c0.8,0,1.6-0.3,2-1
	c0.6-1.1,0.8-2.3,0.7-3.5c0.1-1.1-0.2-2.2-0.7-3.2C94.3,6.7,93.6,6.3,92.8,6.3z"/>
<path id="n" class="st0" d="M98.8,5.9l3.2-0.2c0.1,0.7,0.2,1.4,0.3,2.1c0.4-0.6,0.9-1.2,1.5-1.6c0.6-0.3,1.3-0.5,2-0.5
	c0.6,0,1.1,0.1,1.6,0.4c0.4,0.3,0.8,0.7,1,1.2c0.3,0.6,0.4,1.2,0.4,1.8v4.7c0,0.3,0.1,0.5,0.2,0.7c0.2,0.2,0.5,0.2,0.8,0.2h0.7v0.8
	h-5.1v-0.8h0.5c0.3,0,0.7,0,0.9-0.2c0.2-0.2,0.3-0.4,0.3-0.6V9.7c0-0.7-0.1-1.4-0.4-2c-0.4-0.6-1.1-1-1.8-0.9
	c-0.8,0-1.5,0.3-1.9,0.9c-0.5,0.7-0.8,1.6-0.8,2.4v3.6c0,0.3,0.1,0.5,0.2,0.7c0.2,0.2,0.5,0.2,0.8,0.2h0.7v0.8h-5.1v-0.8h0.7
	c0.3,0,0.5,0,0.8-0.2c0.2-0.1,0.3-0.3,0.3-0.5V7.8c0-0.3-0.1-0.7-0.3-0.9c-0.3-0.2-0.6-0.4-1-0.3h-0.5L98.8,5.9z"/>
<path id="v" class="st0" d="M111.3,5.9h4.7v0.7c-0.4,0-0.8,0-1.2,0.2c-0.2,0.1-0.3,0.2-0.3,0.4c0,0.2,0,0.3,0.1,0.4l2.6,5.7l2.3-5.5
	c0-0.1,0-0.2,0-0.3c0-0.5-0.5-0.8-1.5-0.9V5.9h4v0.7c-0.4,0-0.7,0.1-1,0.3c-0.2,0.2-0.4,0.4-0.6,0.7l-3.5,8.1h-0.6l-3.8-8.4
	c-0.1-0.3-0.3-0.5-0.5-0.6c-0.3-0.1-0.6-0.2-0.9-0.2L111.3,5.9z"/>
<path id="e_1_" class="st0" d="M132.1,10.8h-6.9c-0.1,1.1,0.2,2.2,0.8,3.1c0.6,0.7,1.4,1,2.3,1c1.4-0.1,2.7-1,3.2-2.3l0.7,0.3
	c-0.7,1.8-2.4,2.9-4.3,2.9c-1.2,0-2.4-0.5-3.3-1.4c-0.9-1-1.4-2.3-1.3-3.6c-0.1-1.4,0.4-2.7,1.3-3.8c0.8-0.9,2-1.5,3.2-1.4
	c0.9,0,1.7,0.2,2.4,0.7c0.7,0.5,1.2,1.2,1.5,2.1C132,9.1,132.1,9.9,132.1,10.8z M125.2,10h4.2c0.2,0,0.4-0.1,0.6-0.3
	c0.2-0.3,0.2-0.6,0.2-0.9c0-0.7-0.2-1.4-0.7-1.9c-0.4-0.5-1-0.8-1.7-0.8c-0.7,0-1.4,0.4-1.8,1C125.5,8,125.2,9,125.2,10z"/>
<path id="r_1_" class="st0" d="M133.5,5.9l3.5-0.2v3.9c0.3-1,0.7-2,1.3-2.9c0.4-0.6,1.2-1,1.9-1c0.5,0,0.9,0.2,1.2,0.5
	c0.3,0.3,0.5,0.8,0.5,1.3c0,0.4-0.1,0.7-0.3,1c-0.2,0.2-0.5,0.4-0.8,0.4c-0.3,0-0.6-0.1-0.7-0.3c-0.2-0.2-0.3-0.5-0.3-0.8
	c0-0.2,0-0.5,0.1-0.7c0.1-0.1,0.1-0.2,0.1-0.3c0-0.1-0.1-0.2-0.2-0.2c-0.4,0-0.7,0.2-0.9,0.5c-0.5,0.5-0.9,1.2-1.1,2
	c-0.4,1-0.6,2-0.6,3v2c0,0.2,0.1,0.4,0.3,0.5c0.3,0.1,0.5,0.2,0.8,0.2h1.2v0.8h-6v-0.8h1c0.3,0,0.5,0,0.7-0.2
	c0.2-0.1,0.3-0.3,0.3-0.4V8c0-0.4-0.1-0.7-0.3-1c-0.2-0.2-0.5-0.3-0.9-0.3h-0.8L133.5,5.9z"/>
<path id="t" class="st0" d="M145.6,2h0.7v3.9h3.1v0.9h-3.1V13c0,0.4,0.1,0.9,0.4,1.2c0.3,0.3,0.6,0.4,1,0.4c0.5,0,0.9-0.2,1.2-0.6
	c0.4-0.6,0.6-1.4,0.6-2.1h0.7c0,1-0.3,2-0.9,2.9c-0.5,0.6-1.3,1-2.1,0.9c-0.7,0-1.4-0.2-1.9-0.6c-0.5-0.5-0.7-1.1-0.7-1.7V6.8H143
	V6.1c0.7-0.1,1.3-0.4,1.7-0.9C145.3,4.2,145.7,3.1,145.6,2z"/>
<path id="e" class="st0" d="M160.4,10.8h-6.9c-0.1,1.1,0.2,2.2,0.8,3.1c0.6,0.7,1.4,1,2.2,1c1.4-0.1,2.7-1,3.2-2.3l0.7,0.3
	c-0.7,1.8-2.4,2.9-4.3,2.9c-1.2,0-2.4-0.5-3.2-1.4c-0.9-1-1.4-2.3-1.3-3.6c-0.1-1.4,0.4-2.7,1.3-3.8c0.8-0.9,2-1.5,3.2-1.4
	c0.9,0,1.7,0.2,2.4,0.7c0.7,0.5,1.3,1.2,1.5,2.1C160.3,9.1,160.4,9.9,160.4,10.8z M153.5,10h4.2c0.2,0,0.4-0.1,0.6-0.3
	c0.2-0.3,0.2-0.6,0.2-0.9c0-0.7-0.2-1.4-0.7-1.9c-0.4-0.5-1-0.8-1.7-0.8c-0.7,0-1.4,0.4-1.8,1C153.7,8,153.4,9,153.5,10z"/>
<path id="r" class="st0" d="M161.8,5.9l3.5-0.2v3.9c0.3-1,0.7-2,1.3-2.9c0.4-0.6,1.2-1,1.9-1c0.5,0,0.9,0.2,1.3,0.5
	c0.3,0.3,0.5,0.8,0.5,1.3c0,0.4-0.1,0.7-0.3,1c-0.2,0.2-0.5,0.4-0.8,0.4c-0.3,0-0.6-0.1-0.8-0.3c-0.2-0.2-0.3-0.5-0.3-0.8
	c0-0.2,0.1-0.4,0.2-0.6c0.1-0.1,0.1-0.2,0.2-0.3c0-0.1-0.1-0.2-0.2-0.2c-0.4,0-0.7,0.2-1,0.5c-0.5,0.6-0.9,1.2-1.1,2
	c-0.4,1-0.6,2-0.6,3v2c0,0.2,0.1,0.4,0.2,0.5c0.3,0.1,0.5,0.2,0.8,0.2h1.2v0.8h-6v-0.8h1c0.3,0,0.5,0,0.7-0.2
	c0.2-0.1,0.2-0.3,0.2-0.4V8c0-0.4-0.1-0.7-0.3-1c-0.2-0.2-0.5-0.3-0.9-0.3h-0.9L161.8,5.9z"/>
<path id="zero" class="st1" d="M165.9,19c1.3,0,2.5,0.5,3.3,1.5c1.1,1.3,1.6,3.2,1.6,5.8c0.1,1.9-0.4,3.9-1.4,5.5
	c-0.8,1.1-2,1.9-3.4,1.9c-1.3,0-2.5-0.6-3.3-1.6c-1.2-1.7-1.8-3.7-1.7-5.8c-0.1-2,0.4-4,1.6-5.7C163.3,19.6,164.5,19,165.9,19z
	 M165.9,19.7c-0.9,0-1.7,0.5-2.1,1.3c-0.5,0.9-0.8,2.7-0.8,5.4s0.3,4.4,0.8,5.3c0.4,0.8,1.2,1.3,2.1,1.3c0.9,0,1.7-0.5,2.1-1.2
	c0.6-1,0.9-2.8,0.9-5.4s-0.3-4.5-0.8-5.4C167.7,20.3,166.8,19.7,165.9,19.7z"/>
<path id="one" class="st1" d="M183.1,19.3v12.8c0,0.2,0.1,0.3,0.2,0.4c0.2,0.1,0.5,0.2,0.7,0.2h2v0.8h-7.4v-0.8h1.7
	c0.3,0,0.6-0.1,0.8-0.3c0.2-0.2,0.3-0.4,0.3-0.7v-9.7c0-0.2-0.1-0.4-0.2-0.5c-0.2-0.1-0.4-0.2-0.6-0.2h-2.3v-0.7
	c0.9-0.1,1.8-0.3,2.6-0.5c0.6-0.2,1.2-0.5,1.8-0.9L183.1,19.3z"/>
</svg>
